Coordinates
version=1
nRows=54
nColumns=12
inDegrees=yes

Units are S.I. units (second, meters, Newtons, ...)
Angles are in degrees

endheader
time	SC_y	SC_z	SC_x	AC_y	AC_z	AC_x	GH_y	GH_z	GH_yy	EL_x	PS_y
       0.0              -38.72          24.19          71.28          40.05         -5.126         -11.18         -160.0          11.34         -17.64          11.25          60.31
   0.04092              -38.72          24.18          71.28          40.05         -5.127         -11.17         -159.9          11.35         -17.64          11.25          60.33
   0.08183              -38.72          24.18          71.27          40.05         -5.129         -11.17         -159.9          11.36         -17.65          11.25          60.34
    0.1227              -38.71          24.18          71.26          40.05         -5.131         -11.17         -159.9          11.37         -17.65          11.26          60.35
    0.1637              -38.71          24.17          71.26          40.05         -5.132         -11.16         -159.9          11.38         -17.65          11.26          60.37
    0.2046              -38.71          24.17          71.25          40.05         -5.134         -11.16         -159.9           11.4         -17.65          11.26          60.39
    0.2455              -38.71          24.17          71.24          40.05         -5.136         -11.15         -159.8          11.41         -17.65          11.27           60.4
    0.2864               -38.7          24.16          71.23          40.06         -5.139         -11.15         -159.8          11.43         -17.65          11.27          60.42
    0.3273               -38.7          24.16          71.22          40.06         -5.141         -11.14         -159.8          11.44         -17.65          11.27          60.44
    0.3682               -38.7          24.16          71.21          40.06         -5.143         -11.13         -159.8          11.46         -17.66          11.28          60.46
    0.4092              -38.69          24.15           71.2          40.06         -5.146         -11.13         -159.7          11.48         -17.66          11.28          60.49
    0.4501              -38.69          24.15          71.19          40.06         -5.149         -11.12         -159.7          11.49         -17.66          11.29          60.51
     0.491              -38.68          24.14          71.18          40.07         -5.152         -11.11         -159.7          11.52         -17.66          11.29          60.54
    0.5319              -38.68          24.13          71.16          40.07         -5.155          -11.1         -159.6          11.54         -17.66           11.3          60.57
    0.5728              -38.67          24.13          71.15          40.07         -5.159         -11.09         -159.6          11.56         -17.67           11.3           60.6
    0.6137              -38.67          24.12          71.13          40.07         -5.163         -11.08         -159.6          11.59         -17.67          11.31          60.64
    0.6546              -38.66          24.11          71.11          40.08         -5.167         -11.07         -159.5          11.62         -17.67          11.31          60.67
    0.6956              -38.65          24.11           71.1          40.08         -5.172         -11.06         -159.5          11.65         -17.68          11.32          60.71
    0.7365              -38.65           24.1          71.07          40.08         -5.177         -11.05         -159.4          11.68         -17.68          11.33          60.76
    0.7774              -38.64          24.09          71.05          40.09         -5.182         -11.03         -159.3          11.72         -17.68          11.34          60.81
    0.8183              -38.63          24.08          71.03          40.09         -5.189         -11.02         -159.3          11.76         -17.69          11.35          60.86
    0.8592              -38.62          24.07           71.0           40.1         -5.195          -11.0         -159.2          11.81         -17.69          11.36          60.92
    0.9001              -38.61          24.05          70.97           40.1         -5.203         -10.98         -159.1          11.86          -17.7          11.37          60.99
     0.941               -38.6          24.04          70.94          40.11         -5.211         -10.96         -159.0          11.91          -17.7          11.38          61.06
     0.982              -38.58          24.02           70.9          40.11          -5.22         -10.94         -158.9          11.97         -17.71          11.39          61.14
     1.023              -38.57           24.0          70.86          40.12          -5.23         -10.91         -158.8          12.04         -17.72          11.41          61.23
     1.064              -38.55          23.98          70.81          40.13         -5.242         -10.88         -158.7          12.12         -17.72          11.43          61.33
     1.105              -38.53          23.96          70.76          40.14         -5.255         -10.85         -158.6           12.2         -17.73          11.45          61.44
     1.146              -38.51          23.94           70.7          40.15         -5.269         -10.81         -158.4           12.3         -17.74          11.47          61.57
     1.187              -38.49          23.91          70.63          40.16         -5.286         -10.77         -158.2          12.41         -17.76          11.49          61.71
     1.227              -38.46          23.88          70.56          40.18         -5.304         -10.72         -158.0          12.54         -17.77          11.52          61.88
     1.268              -38.43          23.84          70.47          40.19         -5.326         -10.66         -157.8          12.69         -17.78          11.56          62.07
     1.309              -38.39          23.79          70.37          40.21         -5.351          -10.6         -157.5          12.85          -17.8          11.59          62.29
      1.35              -38.35          23.74          70.25          40.23          -5.38         -10.53         -157.2          13.05         -17.82          11.64          62.54
     1.391               -38.3          23.68          70.11          40.25         -5.414         -10.44         -156.8          13.28         -17.85          11.69          62.84
     1.432              -38.24          23.62          69.95          40.28         -5.454         -10.34         -156.4          13.54         -17.87          11.75          63.19
     1.473              -38.17          23.53          69.76          40.32         -5.502         -10.22         -155.9          13.86         -17.91          11.82          63.61
     1.514              -38.09          23.43          69.53          40.36         -5.558         -10.07         -155.3          14.25         -17.95          11.91          64.11
     1.555              -37.98          23.31          69.25          40.41         -5.627         -9.893         -154.5          14.71          -18.0          12.02          64.71
     1.596              -37.86          23.17           68.9          40.47         -5.712         -9.677         -153.6          15.27         -18.05          12.15          65.45
     1.637              -37.71          22.99          68.48          40.54         -5.816         -9.411         -152.5          15.97         -18.13           12.3          66.36
     1.678              -37.52          22.76          67.96          40.63         -5.945         -9.079         -151.1          16.84         -18.22           12.5           67.5
     1.718              -37.28          22.48          67.29          40.75         -6.108         -8.661         -149.3          17.94         -18.33          12.75          68.93
     1.759              -36.97          22.12          66.45           40.9         -6.316         -8.129         -147.1          19.33         -18.48          13.07          70.76
       1.8              -36.58          21.65          65.37          41.09         -6.582         -7.449         -144.2          21.12         -18.67          13.47          73.09
     1.841              -36.08          21.06          63.99          41.33         -6.922         -6.576         -140.5          23.41          -18.9           14.0          76.08
     1.882              -35.44           20.3          62.22          41.65         -7.358          -5.46         -135.8          26.33         -19.21          14.66           79.9
     1.923              -34.64          19.35           60.0          42.04         -7.905         -4.058         -129.9          30.01         -19.59           15.5          84.71
     1.964              -33.66          18.19          57.29          42.52         -8.573         -2.349         -122.7          34.49         -20.06          16.52          90.56
     2.005              -32.52          16.84          54.15          43.07         -9.346        -0.3674         -114.3          39.69         -20.61           17.7          97.35
     2.046              -31.29          15.39          50.75          43.67         -10.18          1.778         -105.3          45.31         -21.19          18.98          104.7
     2.087              -30.06          13.93          47.35          44.27         -11.02          3.923         -96.23          50.94         -21.78          20.26          112.0
     2.128              -28.93          12.58          44.21          44.83         -11.79          5.904         -87.87          56.13         -22.32          21.44          118.8
     2.169              -27.95          11.42           41.5           45.3         -12.46          7.613         -80.65          60.62         -22.79          22.46          124.7
